Coordinates
version=1
nRows=10
nColumns=40
inDegrees=yes

Units are S.I. units (second, meters, Newtons, ...)
If the header above contains a line with 'inDegrees', this indicates whether rotational values are in degrees (yes) or radians (no).

endheader
time	pelvis_tilt	pelvis_list	pelvis_rotation	pelvis_tx	pelvis_ty	pelvis_tz	hip_flexion_r	hip_adduction_r	hip_rotation_r	knee_angle_r	knee_angle_r_beta	ankle_angle_r	subtalar_angle_r	mtp_angle_r	hip_flexion_l	hip_adduction_l	hip_rotation_l	knee_angle_l	knee_angle_l_beta	ankle_angle_l	subtalar_angle_l	mtp_angle_l	lumbar_extension	lumbar_bending	lumbar_rotation	arm_flex_r	arm_add_r	arm_rot_r	elbow_flex_r	pro_sup_r	wrist_flex_r	wrist_dev_r	arm_flex_l	arm_add_l	arm_rot_l	elbow_flex_l	pro_sup_l	wrist_flex_l	wrist_dev_l
      4.80000000	     11.45721207	     -7.37857296	     -6.04485204	     -0.33819213	      0.85874516	     -1.01296432	     41.31931060	      8.33120775	    -10.62334248	      7.01883976	      0.12250186	      1.43763227	      0.00000000	      0.00000000	     30.59724208	    -10.78563655	     -7.57734126	     80.57958040	      1.40637899	     27.60215893	      0.00000000	      0.00000000	    -25.77306229	     -2.51205910	     13.45260721	     89.93030614	    -18.93011029	     23.32807624	     33.36507323	     82.46959593	      0.00000000	      0.00000000	     89.95625682	    -14.96949691	     31.78539472	     49.56646448	     80.11246518	      0.00000000	      0.00000000
      4.80500000	     11.42014889	     -7.41109595	     -6.03640711	     -0.33782385	      0.85996566	     -1.01296091	     41.27241751	      8.34438728	    -10.61768199	      7.03100472	      0.12271418	      1.32063772	      0.00000000	      0.00000000	     30.48702149	    -10.80790421	     -7.57823046	     80.34733837	      1.40232560	     27.53257308	      0.00000000	      0.00000000	    -25.63437711	     -2.42749725	     13.44798780	     89.92952880	    -18.96867407	     23.43564187	     33.30235335	     82.48561395	      0.00000000	      0.00000000	     89.95591976	    -15.04399661	     31.86185676	     49.53666274	     80.12748687	      0.00000000	      0.00000000
      4.81000000	     11.39569408	     -7.42853887	     -6.01851372	     -0.33750510	      0.86136985	     -1.01298292	     41.19779967	      8.33191835	    -10.60396978	      7.02532472	      0.12261505	      1.24249857	      0.00000000	      0.00000000	     30.34155956	    -10.78981645	     -7.57244030	     80.05201427	      1.39717122	     27.44025846	      0.00000000	      0.00000000	    -25.51871871	     -2.35266672	     13.45062879	     89.92898116	    -19.00538035	     23.55874187	     33.21601987	     82.50380844	      0.00000000	      0.00000000	     89.95561248	    -15.09318646	     31.97274149	     49.49643157	     80.14482239	      0.00000000	      0.00000000
      4.81500000	     11.49163305	     -7.37244195	     -5.98109900	     -0.33700792	      0.86279144	     -1.01309833	     40.96360306	      8.25444686	    -10.60525772	      6.95194919	      0.12133440	      1.23111743	      0.00000000	      0.00000000	     30.05968338	    -10.66691695	     -7.59886682	     79.78093624	      1.39244002	     27.32748665	      0.00000000	      0.00000000	    -25.47709359	     -2.37299977	     13.37101159	     89.92931407	    -19.06844380	     24.04038230	     33.01527760	     82.57361958	      0.00000000	      0.00000000	     89.95558807	    -15.16594709	     32.27732750	     49.38976711	     80.20574376	      0.00000000	      0.00000000
      4.82000000	     11.45366864	     -7.39549186	     -5.93925325	     -0.33654890	      0.86403025	     -1.01325594	     40.88057855	      8.25835014	    -10.65262722	      6.88885671	      0.12023323	      1.49461492	      0.00000000	      0.00000000	     29.94630622	    -10.63281660	     -7.57757753	     79.52229306	      1.38792584	     27.25198876	      0.00000000	      0.00000000	    -25.33427555	     -2.26297055	     13.33684967	     89.92822338	    -19.13084730	     24.13709116	     33.02984158	     82.58951593	      0.00000000	      0.00000000	     89.95516858	    -15.23643393	     32.36176969	     49.36271987	     80.23008217	      0.00000000	      0.00000000
      4.82500000	     11.56117861	     -7.32126373	     -5.85745630	     -0.33610527	      0.86564497	     -1.01340613	     40.60629567	      8.15776579	    -10.67510256	      6.77341763	      0.11821844	      1.94105920	      0.00000000	      0.00000000	     29.65481369	    -10.47548244	     -7.55811803	     79.21537317	      1.38256908	     27.10538097	      0.00000000	      0.00000000	    -25.32231316	     -2.28262262	     13.23945567	     89.92810284	    -19.17026804	     24.40912805	     32.88349441	     82.63261647	      0.00000000	      0.00000000	     89.95499696	    -15.30548596	     32.56394294	     49.29692255	     80.27701791	      0.00000000	      0.00000000
      4.83000000	     11.64096451	     -7.37815616	     -5.84301708	     -0.33562755	      0.86706286	     -1.01346203	     40.45062614	      8.17851813	    -10.65299563	      6.87258112	      0.11994917	      2.08873171	      0.00000000	      0.00000000	     29.37783274	    -10.53956907	     -7.62797417	     78.94683003	      1.37788212	     27.05952183	      0.00000000	      0.00000000	    -25.28265090	     -2.17545141	     13.24678943	     89.92757553	    -19.20705299	     24.66859181	     32.79031119	     82.66523149	      0.00000000	      0.00000000	     89.95473646	    -15.35082949	     32.75412099	     49.21062638	     80.34325408	      0.00000000	      0.00000000
      4.83500000	     11.56402883	     -7.42143681	     -5.81303569	     -0.33536117	      0.86844427	     -1.01359991	     40.43105738	      8.17503868	    -10.62914930	      6.89204444	      0.12028887	      2.04545024	      0.00000000	      0.00000000	     29.31633269	    -10.53171241	     -7.58797563	     78.69676972	      1.37351774	     26.99632568	      0.00000000	      0.00000000	    -25.12845638	     -2.05402523	     13.26119484	     89.92676165	    -19.29447797	     24.67438220	     32.78677539	     82.66681359	      0.00000000	      0.00000000	     89.95422936	    -15.41612777	     32.75263272	     49.19469263	     80.35107300	      0.00000000	      0.00000000
      4.84000000	     11.51479383	     -7.45381673	     -5.82179755	     -0.33503038	      0.86986226	     -1.01366740	     40.39582158	      8.19223759	    -10.64040041	      6.93641776	      0.12106333	      1.94668156	      0.00000000	      0.00000000	     29.18301303	    -10.51869269	     -7.55754132	     78.38485804	      1.36807386	     26.88871294	      0.00000000	      0.00000000	    -24.98174838	     -1.97284711	     13.27625656	     89.92575984	    -19.33345667	     24.74843146	     32.73458266	     82.67991897	      0.00000000	      0.00000000	     89.95388176	    -15.45445512	     32.80843569	     49.18397363	     80.36520429	      0.00000000	      0.00000000
      4.84500000	     11.49045675	     -7.47786914	     -5.81951462	     -0.33479281	      0.87136533	     -1.01382819	     40.34684685	      8.18570362	    -10.67046011	      7.01042863	      0.12235506	      1.76082562	      0.00000000	      0.00000000	     29.03382247	    -10.49157392	     -7.54797683	     78.06257178	      1.36244890	     26.74533791	      0.00000000	      0.00000000	    -24.85263907	     -1.87959662	     13.27483141	     89.92536924	    -19.35973363	     24.94040755	     32.65304111	     82.71189227	      0.00000000	      0.00000000	     89.95352888	    -15.50304521	     32.98745332	     49.08388079	     80.39407184	      0.00000000	      0.00000000
